HIERARCHY
ROOT Hips
{
	OFFSET 53.205700 -9.940206 95.647202
	CHANNELS 6 Xposition Yposition Zposition Xrotation Yrotation Zrotation
	JOINT spine
	{
		OFFSET 0.000000 -0.458069 7.965683
		CHANNELS 3 Xrotation Yrotation Zrotation
		JOINT spine1
		{
			OFFSET 0.000000 -0.000001 10.243103
			CHANNELS 3 Xrotation Yrotation Zrotation
			JOINT spine2
			{
				OFFSET 0.000000 -0.000002 9.814751
				CHANNELS 3 Xrotation Yrotation Zrotation
				JOINT Neck
				{
					OFFSET 0.000000 -1.201384 25.198601
					CHANNELS 3 Xrotation Yrotation Zrotation
					JOINT Head
					{
						OFFSET 0.000000 -0.000002 7.613144
						CHANNELS 3 Xrotation Yrotation Zrotation
						End Site
						{
							OFFSET 0.000000 6.077327 18.428101
						}
					}
				}
				JOINT RightShoulder
				{
					OFFSET -4.132702 0.575449 10.599205
					CHANNELS 3 Xrotation Yrotation Zrotation
					JOINT RightArm
					{
						OFFSET 0.000000 -0.000002 13.901794
						CHANNELS 3 Xrotation Yrotation Zrotation
						JOINT RightArmRoll
						{
							OFFSET 0.000000 -0.000002 7.017883
							CHANNELS 3 Xrotation Yrotation Zrotation
							JOINT RightForeArm
							{
								OFFSET 0.000000 -0.000003 20.440598
								CHANNELS 3 Xrotation Yrotation Zrotation
								JOINT RightForeArmRoll
								{
									OFFSET 0.000000 -0.000001 7.875153
									CHANNELS 3 Xrotation Yrotation Zrotation
									JOINT RightHand
									{
										OFFSET 0.000000 -0.000003 15.803696
										CHANNELS 3 Xrotation Yrotation Zrotation
										End Site
										{
											OFFSET 0.000000 0.000000 0.100006
										}
									}
								}
							}
						}
					}
				}
				JOINT LeftShoulder
				{
					OFFSET 4.132702 0.575449 10.599205
					CHANNELS 3 Xrotation Yrotation Zrotation
					JOINT LeftArm
					{
						OFFSET 0.000000 -0.000002 13.901794
						CHANNELS 3 Xrotation Yrotation Zrotation
						JOINT LeftArmRoll
						{
							OFFSET 0.000000 -0.000002 7.017883
							CHANNELS 3 Xrotation Yrotation Zrotation
							JOINT LeftForeArm
							{
								OFFSET 0.000000 -0.000003 20.440598
								CHANNELS 3 Xrotation Yrotation Zrotation
								JOINT LeftForeArmRoll
								{
									OFFSET 0.000000 -0.000001 7.875153
									CHANNELS 3 Xrotation Yrotation Zrotation
									JOINT LeftHand
									{
										OFFSET 0.000000 -0.000003 15.803696
										CHANNELS 3 Xrotation Yrotation Zrotation
										End Site
										{
											OFFSET 0.000000 0.000000 0.100006
										}
									}
								}
							}
						}
					}
				}
			}
		}
	}
	JOINT RightUpLeg
	{
		OFFSET -7.060482 1.086100 -1.294701
		CHANNELS 3 Xrotation Yrotation Zrotation
		JOINT RightUpLegRoll
		{
			OFFSET 0.000000 -0.000003 18.530800
			CHANNELS 3 Xrotation Yrotation Zrotation
			JOINT RightLeg
			{
				OFFSET 0.000000 0.000004 -22.947601
				CHANNELS 3 Xrotation Yrotation Zrotation
				JOINT RightLegRoll
				{
					OFFSET 0.000000 -0.000004 23.022598
					CHANNELS 3 Xrotation Yrotation Zrotation
					JOINT RightFoot
					{
						OFFSET 0.000000 -0.000004 19.162506
						CHANNELS 3 Xrotation Yrotation Zrotation
						JOINT RightToeBase
						{
							OFFSET 0.000000 -0.000002 16.018799
							CHANNELS 3 Xrotation Yrotation Zrotation
							End Site
							{
								OFFSET 0.006790 0.894206 7.757828
							}
						}
					}
				}
			}
		}
	}
	JOINT LeftUpLeg
	{
		OFFSET 7.060482 1.086100 -1.294701
		CHANNELS 3 Xrotation Yrotation Zrotation
		JOINT LeftUpLegRoll
		{
			OFFSET 0.000000 -0.000003 18.530899
			CHANNELS 3 Xrotation Yrotation Zrotation
			JOINT LeftLeg
			{
				OFFSET 0.000000 -0.000004 22.947502
				CHANNELS 3 Xrotation Yrotation Zrotation
				JOINT LeftLegRoll
				{
					OFFSET 0.000000 -0.000004 23.235504
					CHANNELS 3 Xrotation Yrotation Zrotation
					JOINT LeftFoot
					{
						OFFSET 0.000000 -0.000003 18.949600
						CHANNELS 3 Xrotation Yrotation Zrotation
						JOINT LeftToeBase
						{
							OFFSET 0.000000 -0.000003 16.018799
							CHANNELS 3 Xrotation Yrotation Zrotation
							End Site
							{
								OFFSET -0.030430 0.894205 7.757828
							}
						}
					}
				}
			}
		}
	}
}
MOTION
Frames: 11
Frame Time: 0.041667
53.328796 -8.368728 95.675102 -0.718104 -1.793731 2.737000 -2.457919 0.535844 -0.029891 -0.912898 1.068245 -0.044034 0.732295 1.067643 -0.056829 38.827467 -2.895945 -0.908360 -9.819169 -1.233537 -1.409486 -14.061958 -11.740727 -14.394723 -137.591128 -187.355914 -82.249213 0.000000 -0.000001 -0.000000 36.105346 15.026655 3.288281 0.000001 0.000002 -3.009700 -5.000176 -8.000028 0.000007 -14.120735 7.580386 14.174324 -133.083449 190.913978 78.616563 0.000001 -0.000001 0.000000 39.308746 -18.674190 -3.813415 0.000005 -0.000017 3.001199 -5.000161 8.000507 0.000050 -0.822322 -172.431759 -0.486577 179.999991 -0.000005 -1.113001 170.773376 -1.993882 -0.777818 -0.000006 -0.000000 0.211861 71.667543 6.853960 2.045642 25.605657 -7.355616 0.219155 -0.926187 175.780546 1.868732 -0.000020 -0.000005 -1.096410 -4.599767 1.630684 0.198611 -0.000004 0.000001 -0.037196 68.884958 -6.956361 -1.978252 25.456953 7.355613 0.000000 
53.329697 -8.367280 95.680595 -0.720891 -1.794730 2.733890 -2.459047 0.535051 -0.030366 -0.915145 1.067014 -0.044712 0.730049 1.066404 -0.057493 38.840120 -2.886771 -0.907462 -9.821717 -1.225959 -1.407322 -14.059329 -11.703997 -14.387771 -137.602931 -187.309004 -82.297578 0.000001 0.000002 -0.000000 36.067955 15.011632 3.286718 0.000003 0.000003 -3.009699 -5.000175 -8.000030 0.000005 -14.124449 7.579904 14.180527 -133.072179 190.888979 78.652736 0.000001 0.000000 -0.000000 39.252957 -18.664209 -3.807249 0.000007 -0.000018 3.001212 -5.000159 8.000509 0.000048 -0.811157 -172.431746 -0.485574 179.999991 -0.000005 -1.112004 170.779345 -1.993916 -0.777611 -0.000006 0.000000 0.211737 71.670835 6.853886 2.045627 25.605355 -7.355616 0.218657 -0.918090 175.781530 1.867911 -0.000020 -0.000005 -1.096540 -4.599647 1.630993 0.198542 -0.000004 0.000000 -0.037228 68.885156 -6.956303 -1.978528 25.456948 7.355612 0.000002 
53.325897 -8.374557 95.677994 -0.722509 -1.795129 2.731045 -2.460306 0.534052 -0.030777 -0.917660 1.065493 -0.045247 0.727533 1.064874 -0.058011 38.846014 -2.876437 -0.907012 -9.817086 -1.220291 -1.405129 -14.058471 -11.669611 -14.383975 -137.613203 -187.262723 -82.347862 0.000001 0.000001 -0.000001 36.021595 14.998129 3.284313 0.000000 0.000003 -3.009702 -5.000176 -8.000028 0.000007 -14.127753 7.591010 14.186953 -133.062016 190.870702 78.686224 0.000001 0.000000 0.000000 39.194385 -18.656689 -3.800528 0.000006 -0.000018 3.001230 -5.000162 8.000509 0.000048 -0.801507 -172.432743 -0.485167 179.999991 -0.000005 -1.112004 170.784932 -1.992963 -0.777257 -0.000006 0.000000 0.211646 71.674113 6.853776 2.045709 25.605141 -7.355612 0.218243 -0.911704 175.781530 1.866740 -0.000020 -0.000005 -1.096690 -4.599928 1.631411 0.198472 -0.000004 0.000000 -0.037261 68.885231 -6.956237 -1.978812 25.456945 7.355613 -0.000000 
53.322895 -8.383887 95.677803 -0.723153 -1.795018 2.728366 -2.461679 0.532887 -0.031126 -0.920397 1.063723 -0.045647 0.724795 1.063105 -0.058392 38.845953 -2.865082 -0.906956 -9.806220 -1.216400 -1.402928 -14.059272 -11.637577 -14.383009 -137.622192 -187.216660 -82.397660 0.000001 -0.000001 -0.000000 35.966994 14.986014 3.281265 0.000003 0.000002 -3.009704 -5.000175 -8.000031 0.000006 -14.130696 7.612589 14.193546 -133.052864 190.857656 78.719617 0.000001 -0.000001 -0.000000 39.133152 -18.651017 -3.793229 0.000006 -0.000018 3.001241 -5.000164 8.000507 0.000050 -0.793158 -172.433726 -0.485264 179.999991 -0.000005 -1.112005 170.790205 -1.992993 -0.777073 -0.000007 0.000000 0.211585 71.677494 6.853668 2.045784 25.604842 -7.355619 0.217881 -0.906761 175.781530 1.865247 -0.000020 -0.000005 -1.096860 -4.600550 1.631968 0.198404 -0.000004 0.000000 -0.037294 68.885231 -6.956237 -1.979012 25.456947 7.355611 0.000002 
53.330498 -8.388291 95.694504 -0.723021 -1.794499 2.725797 -2.463126 0.531592 -0.031417 -0.923311 1.061772 -0.045923 0.721880 1.061146 -0.058647 38.840759 -2.852832 -0.907259 -9.790005 -1.214183 -1.400722 -14.061345 -11.608396 -14.384213 -137.629855 -187.170392 -82.449584 -0.000000 0.000002 -0.000001 35.905044 14.975021 3.277404 -0.000000 0.000002 -3.009700 -5.000174 -8.000029 0.000007 -14.133051 7.643540 14.199992 -133.044626 190.848640 78.752696 0.000001 -0.000003 -0.000000 39.069389 -18.646758 -3.785420 0.000007 -0.000017 3.001249 -5.000162 8.000507 0.000054 -0.785890 -172.435707 -0.485739 179.999991 -0.000005 -1.112005 170.795287 -1.993021 -0.776897 -0.000006 0.000000 0.211549 71.680786 6.853591 2.045768 25.604747 -7.355618 0.217593 -0.902984 175.780519 1.863475 -0.000020 -0.000004 -1.097040 -4.601472 1.632634 0.198335 -0.000004 -0.000000 -0.037326 68.885224 -6.956201 -1.979305 25.456952 7.355612 -0.000000 
53.326694 -8.407858 95.694298 -0.722315 -1.793649 2.723229 -2.464655 0.530203 -0.031656 -0.926353 1.059702 -0.046084 0.718838 1.059067 -0.058786 38.831408 -2.839825 -0.907855 -9.769387 -1.213509 -1.398516 -14.064387 -11.582083 -14.387322 -137.636440 -187.123510 -82.502217 0.000000 0.000000 -0.000000 35.836759 14.965030 3.272800 -0.000000 0.000002 -3.009690 -5.000173 -8.000030 0.000007 -14.134884 7.682748 14.206228 -133.037209 190.842343 78.785221 0.000001 -0.000001 -0.000000 39.003198 -18.643531 -3.777103 0.000005 -0.000018 3.001260 -5.000162 8.000508 0.000050 -0.779499 -172.437702 -0.486500 179.999991 -0.000005 -1.112005 170.800150 -1.993048 -0.776727 -0.000006 -0.000000 0.211534 71.683955 6.853485 2.045856 25.604537 -7.355621 0.217343 -0.900105 175.778525 1.861474 -0.000020 -0.000004 -1.097230 -4.602644 1.633428 0.198265 -0.000004 0.000001 -0.037358 68.885197 -6.956129 -1.979594 25.456943 7.355613 -0.000001 
53.321995 -8.411170 95.678589 -0.721232 -1.792589 2.720606 -2.466217 0.528760 -0.031846 -0.929478 1.057541 -0.046141 0.715712 1.056908 -0.058819 38.818649 -2.826193 -0.908692 -9.745270 -1.214277 -1.396311 -14.068101 -11.558854 -14.391726 -137.641781 -187.075603 -82.555219 -0.000000 0.000000 -0.000000 35.762857 14.955749 3.267481 -0.000001 0.000003 -3.009689 -5.000175 -8.000030 0.000007 -14.136162 7.729111 14.212068 -133.030611 190.837480 78.818867 0.000001 -0.000001 0.000000 38.934455 -18.640879 -3.768378 0.000006 -0.000018 3.001272 -5.000164 8.000505 0.000048 -0.773767 -172.440679 -0.487422 179.999991 -0.000005 -1.112004 170.804904 -1.993075 -0.776563 -0.000006 -0.000000 0.211536 71.687029 6.853382 2.045850 25.604344 -7.355617 0.217128 -0.897858 175.776517 1.859240 -0.000020 -0.000005 -1.097440 -4.604037 1.634342 0.198196 -0.000004 0.000000 -0.037389 68.885081 -6.956086 -1.979893 25.456945 7.355613 -0.000001 
53.322495 -8.424239 95.685402 -0.719967 -1.791390 2.717841 -2.467796 0.527298 -0.031991 -0.932641 1.055380 -0.046102 0.712548 1.054739 -0.058756 38.803555 -2.812070 -0.909710 -9.718593 -1.216345 -1.394114 -14.072193 -11.539010 -14.396931 -137.646125 -187.026275 -82.610175 0.000000 -0.000000 -0.000001 35.684221 14.947008 3.261713 0.000002 0.000003 -3.009689 -5.000176 -8.000029 0.000007 -14.136748 7.781526 14.217414 -133.024723 190.832767 78.853386 0.000001 0.000000 0.000000 38.863462 -18.638309 -3.759252 0.000007 -0.000018 3.001282 -5.000163 8.000505 0.000049 -0.768480 -172.443685 -0.488412 179.999991 -0.000005 -1.112004 170.809576 -1.993101 -0.776400 -0.000007 0.000000 0.211551 71.689795 6.853315 2.045772 25.604241 -7.355621 0.216965 -0.895962 175.774522 1.856832 -0.000020 -0.000005 -1.097660 -4.605600 1.635376 0.198126 -0.000004 0.000001 -0.037421 68.884958 -6.956044 -1.980194 25.456948 7.355613 0.000000 
53.321598 -8.431698 95.681694 -0.718719 -1.790171 2.714855 -2.469376 0.525857 -0.032095 -0.935795 1.053250 -0.045977 0.709395 1.052609 -0.058607 38.786858 -2.797592 -0.910871 -9.690256 -1.219622 -1.391924 -14.076366 -11.522664 -14.402612 -137.649622 -186.975117 -82.664673 0.000000 0.000002 0.000001 35.601903 14.938688 3.255163 0.000001 0.000002 -3.009691 -5.000175 -8.000032 0.000007 -14.136712 7.838867 14.221902 -133.019409 190.826825 78.890420 0.000001 0.000000 0.000000 38.790079 -18.635345 -3.749712 0.000007 -0.000019 3.001289 -5.000162 8.000506 0.000049 -0.763432 -172.445652 -0.489375 179.999991 -0.000005 -1.112005 170.814220 -1.994113 -0.776397 -0.000005 0.000000 0.211575 71.692329 6.853224 2.045801 25.604139 -7.355619 0.216818 -0.894156 175.772514 1.854280 -0.000020 -0.000005 -1.097890 -4.607284 1.636538 0.198057 -0.000004 0.000000 -0.037452 68.884842 -6.956001 -1.980392 25.456948 7.355612 0.000000 
53.321396 -8.425272 95.677689 -0.717685 -1.789001 2.711562 -2.470923 0.524473 -0.032163 -0.938893 1.051209 -0.045776 0.706296 1.050580 -0.058383 38.769349 -2.782886 -0.912133 -9.661199 -1.223986 -1.389751 -14.080228 -11.510222 -14.408081 -137.652217 -186.921678 -82.721343 -0.000000 0.000002 0.000000 35.516775 14.930454 3.248024 0.000001 0.000002 -3.009690 -5.000174 -8.000029 0.000006 -14.135909 7.900030 14.225527 -133.014697 190.818369 78.929693 0.000001 0.000000 0.000001 38.714571 -18.631667 -3.739861 0.000007 -0.000016 3.001300 -5.000164 8.000508 0.000047 -0.758400 -172.448657 -0.490175 179.999991 -0.000005 -1.112005 170.818947 -1.994139 -0.777230 -0.000006 0.000000 0.211603 71.694556 6.853174 2.045754 25.604040 -7.355616 0.216701 -0.892163 175.770520 1.851624 -0.000020 -0.000004 -1.098140 -4.609047 1.637819 0.197988 -0.000004 -0.000000 -0.037483 68.884623 -6.955990 -1.980604 25.456945 7.355612 -0.000000 
53.325294 -8.437329 95.678101 -0.717066 -1.787981 2.707884 -2.472417 0.523184 -0.032199 -0.941889 1.049328 -0.045510 0.703300 1.048701 -0.058094 38.752137 -2.768091 -0.913419 -9.632336 -1.229306 -1.387599 -14.083674 -11.501692 -14.413115 -137.654144 -186.865602 -82.777788 0.000001 -0.000000 -0.000000 35.429468 14.922281 3.240270 0.000001 0.000002 -3.009681 -5.000177 -8.000027 0.000007 -14.134312 7.963919 14.228011 -133.010544 190.806184 78.971986 0.000001 0.000001 -0.000000 38.636874 -18.626711 -3.729615 0.000005 -0.000018 3.001311 -5.000162 8.000509 0.000051 -0.753177 -172.451649 -0.490715 179.999991 -0.000005 -1.112005 170.823714 -1.995150 -0.777224 -0.000006 -0.000000 0.211633 71.696448 6.853063 2.045722 25.603937 -7.355613 0.216593 -0.889718 175.768512 1.848894 -0.000020 -0.000005 -1.098390 -4.610851 1.639231 0.197919 -0.000004 -0.000000 -0.037514 68.884398 -6.955941 -1.980909 25.456948 7.355612 -0.000000 
